# xmcd
#
# Track frame offsets:
#	150
#	15670
#	48645
#	80179
#	99182
#	114373
#	137849
#	164631
#	179093
#	205621
#
# Disc length: 3335 seconds
#
# Revision: 3
# Processed by: cddbd v1.5.2PL0 Copyright (c) Steve Scherf et al.
# Submitted via: audiograbber 1.83.01
#
DISCID=880d050a
DTITLE=Tiny Island - Tiny Island
DYEAR=2001
DGENRE=New Age
TTITLE0=La Valse Petit
TTITLE1=Vaquero
TTITLE2=Black Sand
TTITLE3=When I Feel The Sea Beneath My Soul
TTITLE4=She Danced With Me
TTITLE5=My Siren Of The Woods
TTITLE6=Sacred Ground
TTITLE7=Lilla Långdansen
TTITLE8=Paniolo Dream
TTITLE9=Puakea
EXTD=
EXTT0=
EXTT1=
EXTT2=
EXTT3=
EXTT4=
EXTT5=
EXTT6=
EXTT7=
EXTT8=
EXTT9=
PLAYORDER=
